<svg xmlns="http://www.w3.org/2000/svg" xmlns:xlink="http://www.w3.org/1999/xlink" viewBox="0 0 600 270"><defs><style>.cls-1{isolation:isolate;}.cls-2{fill:url(#linear-gradient);}.cls-3{fill:url(#linear-gradient-2);}.cls-4{fill:url(#linear-gradient-3);}.cls-5{fill:url(#linear-gradient-4);}.cls-6,.cls-7{fill:#9b8bd6;mix-blend-mode:multiply;}.cls-6{opacity:0.5;}.cls-7{opacity:0.3;}</style><linearGradient id="linear-gradient" x1="321.98" y1="36.83" x2="376.46" y2="259.63" gradientTransform="matrix(1.12, -0.01, -0.01, 0.92, -59.9, 17.66)" gradientUnits="userSpaceOnUse"><stop offset="0" stop-color="#6b9ee3"/><stop offset="1" stop-color="#867ea8"/></linearGradient><linearGradient id="linear-gradient-2" x1="288.09" y1="69.54" x2="342.56" y2="292.35" gradientTransform="matrix(-0.98, 0.92, 0.74, 0.77, 421.49, -244.57)" xlink:href="#linear-gradient"/><linearGradient id="linear-gradient-3" x1="314.61" y1="242.44" x2="314.61" y2="-28.22" gradientTransform="matrix(1.72, -0.01, -0.01, 1.33, -169.33, -43.82)" gradientUnits="userSpaceOnUse"><stop offset="0" stop-color="#628ccc"/><stop offset="1" stop-color="#6253a1"/></linearGradient><linearGradient id="linear-gradient-4" x1="364.2" y1="77.47" x2="250.05" y2="203.82" gradientUnits="userSpaceOnUse"><stop offset="0" stop-color="#9abff1"/><stop offset="1" stop-color="#4e4fbd"/></linearGradient></defs><title>mountain new</title><g class="cls-1"><g id="Ñëîé_1" data-name="Ñëîé 1"><polygon class="cls-2" points="278.07 160.18 291.07 148.53 293.33 148.45 307.22 147.46 329.57 121.55 336.54 124.54 393.86 176.98 301.79 194.43 278.07 160.18"/><polygon class="cls-3" points="298.43 148.03 277.87 148.9 275.84 150.69 262.97 161.29 222.94 157.81 219.25 166.07 211.1 257.49 305.03 196.47 298.43 148.03"/><path class="cls-4" d="M266.51,190.92l27.84-15.78,11.12,1.44,12.32-1.29L345.5,162l72.81-49.8,82.62,135.36s-266.2,5.55-262.11,4.73S266.51,190.92,266.51,190.92Z"/><polygon class="cls-5" points="380.41 218.37 193.87 216.32 193.9 203.37 149.28 181.6 194.15 107.66 218.76 79.64 219.15 79.19 219.32 79 224.63 82.79 237.95 112.92 238.08 112.88 243.72 111.17 244.13 111.04 246.19 114.97 248.49 114.97 271.4 157.43 282.5 170.1 284.56 170.1 325.55 151.44 379.06 206.21 380.41 218.37"/><path class="cls-6" d="M244.44,161.44l-1.15-7.1,3.92,2.86-7.84-35,2-1.43,3.39,3-2.12-12.62,0-.15-5.48,1.87-.11,0-20.41,28-2.88-25,1.82-1.53,1.31-2.6,1.78,4.13-1.78-15.25L218.64,98l2.45,1.91-2.44-20.7-.39.45-24,28L175.34,139l18.71,42.12-.06,22.3,41.2-18.94L237.8,186l-4.44-43.76,1.83-.47Zm-35.36-10.19-11.9,16.32,1-49.51,2.14-.78,2.41,7.87,6.89-5.8C209.45,127.69,209.16,143.43,209.08,151.25Z"/><polygon class="cls-7" points="258.38 212.5 258.38 210.7 251.85 210.7 243.81 207.1 246.11 204.13 246.16 200.48 250.18 165.73 256.63 188.57 260.72 186.97 267.26 179.29 269.18 177.28 265.54 169.28 271.18 175.18 273.21 173.04 282.51 170.07 288.79 167.11 321.89 151.48 323.62 175.16 321.06 175.16 321.69 180.72 318.19 186.33 325.29 203.5 316.2 210.43 363.05 216.21 371.3 219.7 246.11 219.07 258.38 212.5"/><polygon class="cls-7" points="321.06 175.16 274.31 186.97 270.34 186.33 321.69 170.18 323.19 169.25 323.62 175.16 321.06 175.16"/><polygon class="cls-7" points="317.3 187.55 286.01 203.39 325.29 203.5 317.3 187.55"/><polygon class="cls-7" points="314.58 211.23 306.02 218.96 254.36 219.81 263.24 213.51 304.55 211.12 304.55 209.96 319.18 207.47 314.58 211.23"/><polygon class="cls-7" points="231.43 123.46 241.35 120.76 244.39 123.46 243.81 119.06 230.32 122.11 216.96 140.45 203.38 160.38 198.16 175.16 189.6 167.58 185.57 193.75 204.9 184.9 235.19 184.43 237.8 185.75 237.23 182.31 205.11 178.07 206.78 170.12 211.79 167.16 213.31 163.4 207.77 165.04 216.55 144.43 233.36 142.42 235.19 141.79 244.24 161.01 243.29 154.34 241.56 153.65 235.92 138.66 223.49 137.71 231.43 123.46"/><polygon class="cls-7" points="218.63 97.98 202.86 100.63 220.6 96.28 221.09 99.89 218.63 97.98"/><polygon class="cls-7" points="216.86 111.75 192.26 115.41 192.26 112.86 216.86 105.66 218.58 115.41 216.86 111.75"/><polygon class="cls-7" points="209.17 144.63 211.79 117.1 201.5 118.64 209.6 119.06 209.17 144.63"/><polygon class="cls-6" points="288.57 171.61 266.16 185.38 270.34 186.33 282.72 189.51 274.31 204.93 258.38 210.43 256.59 210.7 251.85 210.7 243.81 207.1 246.11 204.13 254.97 193.72 250.08 165.04 251.91 162.87 261.38 186.19 267.26 179.29 269.18 177.28 265.28 168.64 266.37 169.28 260.99 160.48 271.77 174.55 273.21 173.04 282.51 170.07 288.79 167.11 290.5 167.16 288.57 171.61"/></g></g></svg>