<svg xmlns="http://www.w3.org/2000/svg" xmlns:xlink="http://www.w3.org/1999/xlink" viewBox="0 0 600 270"><defs><style>.cls-1{isolation:isolate;}.cls-2{fill:url(#linear-gradient);}.cls-3{fill:url(#linear-gradient-2);}.cls-4{fill:url(#linear-gradient-3);}.cls-5,.cls-6{fill:#9b8bd6;mix-blend-mode:multiply;}.cls-5{opacity:0.5;}.cls-6{opacity:0.3;}</style><linearGradient id="linear-gradient" x1="312" y1="-32.46" x2="388.01" y2="278.43" gradientUnits="userSpaceOnUse"><stop offset="0" stop-color="#6b9ee3"/><stop offset="1" stop-color="#867ea8"/></linearGradient><linearGradient id="linear-gradient-2" x1="381.63" y1="239.81" x2="381.63" y2="-137.85" gradientUnits="userSpaceOnUse"><stop offset="0" stop-color="#628ccc"/><stop offset="1" stop-color="#6253a1"/></linearGradient><linearGradient id="linear-gradient-3" x1="429.77" y1="41.15" x2="282.08" y2="204.63" gradientUnits="userSpaceOnUse"><stop offset="0" stop-color="#9abff1"/><stop offset="1" stop-color="#4e4fbd"/></linearGradient></defs><title>mountain</title><g class="cls-1"><g id="Ñëîé_1" data-name="Ñëîé 1"><polygon class="cls-2" points="284.05 134.52 300.09 117.09 302.9 116.98 320.15 115.63 347.67 76.74 356.36 81.32 428.08 161.02 313.87 186.44 284.05 134.52"/><path class="cls-3" d="M297.47,150.88l22.4-16.26,9,1.6,10-1.24,22.32-13.64,58.5-51.46,68,142.32s-215.43,3.5-212.12,2.68S297.47,150.88,297.47,150.88Z"/><polygon class="cls-4" points="449.55 230.12 211.79 227.26 211.84 209.19 154.96 178.82 212.15 75.64 243.51 36.55 244.02 35.91 244.23 35.65 251 40.95 267.97 82.98 268.14 82.93 275.33 80.53 275.86 80.36 278.48 85.85 281.41 85.85 310.61 145.09 324.76 162.76 327.39 162.76 379.63 136.73 447.83 213.16 449.55 230.12"/><path class="cls-5" d="M277.68,150.68l-1.5-9.9,5.11,4L271.07,95.91l2.59-2,4.43,4.21-2.76-17.6,0-.21-7.15,2.61L268,83l-26.64,39.07L237.6,87.12,240,85l1.7-3.63L244,87.12l-2.32-21.29L244,62.14l3.21,2.66L244,35.91l-.51.64L212.15,75.64l-24.66,43.67,24.42,58.77-.07,31.11,53.77-26.43L269,185l-5.79-61,2.38-.67Zm-46.15-14.22L216,159.24l1.28-69.09,2.78-1.08,3.15,11,9-8.09C232,103.6,231.64,125.55,231.53,136.46Z"/><polygon class="cls-6" points="295.88 221.93 295.88 219.42 287.36 219.42 276.86 214.39 279.86 210.25 279.93 205.15 285.18 156.67 293.59 188.54 298.94 186.31 307.47 175.59 309.97 172.78 305.22 161.62 312.58 169.86 315.24 166.87 327.38 162.73 335.58 158.59 378.78 136.79 381.03 169.82 377.69 169.82 378.51 177.59 373.94 185.42 383.21 209.37 371.35 219.05 432.5 227.11 443.27 231.98 279.86 231.1 295.88 221.93"/><polygon class="cls-6" points="377.69 169.82 316.68 186.31 311.5 185.42 378.51 162.88 380.47 161.59 381.03 169.82 377.69 169.82"/><polygon class="cls-6" points="372.78 187.12 331.95 209.22 383.21 209.37 372.78 187.12"/><polygon class="cls-6" points="369.24 220.16 358.06 230.95 290.63 232.13 302.22 223.34 356.15 220.01 356.15 218.38 375.24 214.91 369.24 220.16"/><polygon class="cls-6" points="260.7 97.69 273.66 93.92 277.62 97.69 276.86 91.55 259.25 95.81 241.82 121.4 224.09 149.2 217.28 169.82 206.1 159.26 200.85 195.77 226.07 183.43 265.61 182.76 269.02 184.61 268.27 179.8 226.34 173.89 228.53 162.8 235.07 158.66 237.05 153.42 229.82 155.71 241.28 126.96 263.23 124.15 265.61 123.26 277.42 150.09 276.18 140.78 273.93 139.82 266.57 118.9 250.34 117.57 260.7 97.69"/><polygon class="cls-6" points="244 62.14 223.41 65.83 246.56 59.76 247.21 64.8 244 62.14"/><polygon class="cls-6" points="241.68 81.36 209.57 86.45 209.57 82.91 241.68 72.86 243.93 86.45 241.68 81.36"/><polygon class="cls-6" points="231.64 127.23 235.07 88.82 221.64 90.96 232.21 91.55 231.64 127.23"/><polygon class="cls-5" points="335.29 164.87 306.04 184.09 311.5 185.42 327.65 189.85 316.68 211.36 295.88 219.05 293.55 219.42 287.36 219.42 276.86 214.39 279.86 210.25 291.43 195.73 285.04 155.71 287.43 152.68 299.8 185.22 307.47 175.59 309.97 172.78 304.88 160.73 306.31 161.62 299.29 149.35 313.36 168.98 315.24 166.87 327.38 162.73 335.58 158.59 337.81 158.66 335.29 164.87"/></g></g></svg>