<svg xmlns="http://www.w3.org/2000/svg" xmlns:xlink="http://www.w3.org/1999/xlink" viewBox="0 0 97.77 97.77"><defs><style>.cls-1{isolation:isolate;}.cls-2,.cls-3,.cls-7,.cls-8{mix-blend-mode:screen;}.cls-2{fill:url(#Áåçûìÿííûé_ãðàäèåíò_18);}.cls-3{fill:url(#Áåçûìÿííûé_ãðàäèåíò_558);}.cls-4{fill:#fff;}.cls-4,.cls-6{fill-rule:evenodd;}.cls-5{opacity:0.2;}.cls-6{fill:#625eab;}.cls-7{fill:url(#Áåçûìÿííûé_ãðàäèåíò_223);}.cls-8{fill:url(#Áåçûìÿííûé_ãðàäèåíò_207);}</style><radialGradient id="Áåçûìÿííûé_ãðàäèåíò_18" cx="-1511.27" cy="263.45" r="14.07" gradientTransform="matrix(2.39, 0, 0, 2.37, 3668.28, -575.9)" gradientUnits="userSpaceOnUse"><stop offset="0" stop-color="#5d2798"/><stop offset="0.16" stop-color="#5a2694"/><stop offset="0.32" stop-color="#532387"/><stop offset="0.49" stop-color="#461d73"/><stop offset="0.65" stop-color="#351656"/><stop offset="0.82" stop-color="#1e0c31"/><stop offset="0.99" stop-color="#020104"/><stop offset="1"/></radialGradient><radialGradient id="Áåçûìÿííûé_ãðàäèåíò_558" cx="-1510.97" cy="262.91" r="12.01" gradientTransform="matrix(2.39, 0, 0, 2.37, 3667.09, -576.49)" gradientUnits="userSpaceOnUse"><stop offset="0" stop-color="#213a9f"/><stop offset="0.16" stop-color="#20399b"/><stop offset="0.31" stop-color="#1e348f"/><stop offset="0.48" stop-color="#192d7a"/><stop offset="0.64" stop-color="#13225e"/><stop offset="0.8" stop-color="#0c1539"/><stop offset="0.96" stop-color="#03040c"/><stop offset="1"/></radialGradient><radialGradient id="Áåçûìÿííûé_ãðàäèåíò_223" cx="-1511.49" cy="262.95" r="20.51" gradientTransform="translate(3667.58 -575.3) scale(2.39 2.37)" gradientUnits="userSpaceOnUse"><stop offset="0" stop-color="#2f54bd"/><stop offset="1"/></radialGradient><radialGradient id="Áåçûìÿííûé_ãðàäèåíò_207" cx="-1511.49" cy="262.95" r="13.98" gradientTransform="matrix(2.39, 0, 0, 2.37, 3667.62, -575.06)" gradientUnits="userSpaceOnUse"><stop offset="0" stop-color="#2f54bd"/><stop offset="0.13" stop-color="#2b4cac"/><stop offset="0.39" stop-color="#20387f"/><stop offset="0.75" stop-color="#0e1837"/><stop offset="1"/></radialGradient></defs><title>Moon image</title><g class="cls-1"><g id="Layer_2" data-name="Layer 2"><g id="Ñëîé_1" data-name="Ñëîé 1"><ellipse class="cls-2" cx="50.1" cy="49.35" rx="33.69" ry="33.41" transform="translate(-20.22 49.89) rotate(-45)"/><ellipse class="cls-3" cx="49.71" cy="47.94" rx="28.74" ry="28.5" transform="translate(-19.34 49.18) rotate(-44.99)"/><path class="cls-4" d="M71.55,48.21a21.64,21.64,0,1,1-43.28,0,23,23,0,0,1,.13-2.35,21.64,21.64,0,0,1,43.15,2.35Z"/><g class="cls-5"><path class="cls-6" d="M44.45,62.84a5.16,5.16,0,0,0,.91,1.57,2.92,2.92,0,0,0,1.55.81,2.41,2.41,0,0,0,.94.24,4.72,4.72,0,0,1,1.06,0c.69.16,1.06.77,1.83.81a4.62,4.62,0,0,0,1.83-.4c.6-.18,1.29-.44,1.84-.65s1.14-.39,1.77-.59,1-.66,1.85-.42c.06.31,0,.8.36,1s.71-.17,1-.28c.73-.28,1.4-.44,2.09-.73a3.08,3.08,0,0,0,.93-.39c.33-.24.68-.42,1-.65.63-.42,1.26-.88,1.89-1.31a10.13,10.13,0,0,0,3.57-5.18,1.5,1.5,0,0,0-.39-1.86c-1.06.44-1.48-.21-1.19-1.35a7.87,7.87,0,0,0,.15-3.35c0-.18-.18-.31-.21-.57a5.37,5.37,0,0,0,0-.8A4.33,4.33,0,0,1,67,47.37a6.34,6.34,0,0,0,0-1.57,2.57,2.57,0,0,1-.21-.78,4.06,4.06,0,0,0-.06-1c-.25-.88-1-1.12-1.77-1.37-.5-.17-.74-.34-1.06,0s-.25.85-.25,1.32a4.33,4.33,0,0,0,1,2.35c.21.32.59.63.54,1.06,0,.24-.33.28-.31.52s.34.38.49.58c1.25,1.63-1.1,3.07-2.23,3.94-.64.49-1.6.74-1.84,1.57s.34,1.6.66,2.35a3.63,3.63,0,0,1,.14,2.9,2.31,2.31,0,0,1-.93.65,6.63,6.63,0,0,0-1,.79,3.5,3.5,0,0,1-2.3.59,2.41,2.41,0,0,1-1.31-.53A4.73,4.73,0,0,0,55.39,60a4.4,4.4,0,0,0-.73,0c-.37,0-.44-.2-.77-.28-.55-.14-1,.25-1.39.47a1.83,1.83,0,0,1-1.26.34c-.43-.11-.93-.39-1.35-.48-1-.2-2.62-.28-3.42.4-.4.35-.54.83-.91,1.19S44.55,62,44.45,62.84Z"/><path class="cls-6" d="M64.36,40a4.93,4.93,0,0,1-2.62-1.25A4.84,4.84,0,0,1,60.11,37a4.56,4.56,0,0,1-.2-.59s-.25-.67-.25-.69a1.84,1.84,0,0,1,.58-1.08c.78-.81,2-.23,2.76.26a13.35,13.35,0,0,1,2.08,1.57,5.34,5.34,0,0,1,.93.91A3.12,3.12,0,0,1,66.2,39c0,.88,1.15,1.9-.26,2.1-.55.08-2.24-.39-2.36-1.05Z"/><path class="cls-6" d="M47.07,68.08c-.24.26-.52.08-.79,0a2.52,2.52,0,0,0-.79-.12,6.78,6.78,0,0,1-1.63-.13c-.52-.13-1-.21-1.51-.33-.2,0-.39-.16-.59-.2s-.26,0-.38,0-.07-.08-.11-.09-.2,0-.3,0a11.45,11.45,0,0,1-1.4-.36,2.61,2.61,0,0,1-.6-.19c-.2-.13-.47-.26-.65-.4a17.17,17.17,0,0,1-2.13-1.6c-.61-.61-1.23-1.17-1.87-1.74-.15-.13-.27-.31-.42-.43a3.24,3.24,0,0,1-.49-.36A7.41,7.41,0,0,1,32.55,61,19.91,19.91,0,0,1,31,58.82a12.55,12.55,0,0,0-.6-1.15,6,6,0,0,1-.4-.8,6.67,6.67,0,0,1-.29-.61c-.08-.29-.08-.56-.16-.83,0-.12-.11-.2-.14-.32s0-.32,0-.47-.11-.19-.14-.31,0-.33,0-.47-.11-.2-.14-.32.05-.37,0-.54-.11-.18-.14-.31a2.46,2.46,0,0,1,0-.47,9.06,9.06,0,0,0-.13-.91,4.1,4.1,0,0,1,0-1c0-.13.11-.19.14-.32s0-.34,0-.52c.36-.09.25.66.24.84,0,.34.14.53.14.85s.16.47.4.76a2.38,2.38,0,0,1,.39.55c0,.11,0,.29.06.4a1.18,1.18,0,0,1,.06.39c0,.32,0,.48.23.69a2.05,2.05,0,0,0,.68.37c.3.06.56.06.87.12.13,0,.18.11.31.14s.35-.07.51,0a1.21,1.21,0,0,1,.39.53,1,1,0,0,1-.1.75,2.15,2.15,0,0,1-.14.26c-.06.1-.18.19-.23.29-.25.46.11,1.19.21,1.58,0,.15.26.6.14.74s-.87,0-1-.07c-.08.17.07.49.12.66a3.2,3.2,0,0,0,.28.7,2.93,2.93,0,0,0,1.07,1c.27.14.43.21.48-.15,0-.16,0-.25,0-.4s.17-.12.21-.25,0-.32,0-.47.1-.17.12-.27c.08-.31,0-.65,0-1a1.32,1.32,0,0,1,1.12-1,9.1,9.1,0,0,0,1.63-.52,2.56,2.56,0,0,1,1.84-.16,8,8,0,0,1,1.36.7,5.14,5.14,0,0,0,.61.24,7.09,7.09,0,0,0,.73.26,5.3,5.3,0,0,1,1.33.43,3.71,3.71,0,0,1,1.15.89,1.82,1.82,0,0,1,.32,1.5c-.14.33-.64.61-.88.89-.4.47-.29.79,0,1.27a2.9,2.9,0,0,1,.35.61,3.08,3.08,0,0,1,0,.91,1.16,1.16,0,0,1-.22.62c-.13.2-.43.32-.54.51s0,.27.07.41.09,0,.11.09,0,.18.05.27c.13.3.39.25.66.32a1.14,1.14,0,0,0,.79-.06,1.64,1.64,0,0,1,.39-.14c.19,0,.28.08.42.11.33.06.51-.16.83-.17a.75.75,0,0,1,.62.3,1,1,0,0,1,.37.69C47.57,67.68,47.25,67.84,47.07,68.08Z"/><path class="cls-6" d="M44.58,58.25a1.2,1.2,0,0,1,.23-.11,3.11,3.11,0,0,0,.68.63c.39.24.58.09.66-.32.05-.21-.07-.34-.1-.49s0-.36-.19-.47-1-.07-.89.37Z"/><path class="cls-6" d="M32,41.35a.22.22,0,0,1-.25.12,2.31,2.31,0,0,1,0-.83c0-.13.1-.19.12-.34s0-.24,0-.37.17-.42.21-.58a2.57,2.57,0,0,1,.16-.62c.1-.21.15-.49.24-.73a3.28,3.28,0,0,1,.32-.58c.24-.4.44-.78.68-1.18a8.1,8.1,0,0,1,1.59-2,6.89,6.89,0,0,1,.71-.49c.08-.06.14-.15.22-.2a2.24,2.24,0,0,0,.27-.13c.21-.14.79-.74,1.06-.6-.18.49-.5,1-.73,1.45s-.78.53-1.18.92c-.63.61.42.87.78,1.11s.36.57.36,1a3.29,3.29,0,0,0,.13,1,2.24,2.24,0,0,1,.14.46V39a.18.18,0,0,0,.11.16,1.49,1.49,0,0,1-.2.92,2.27,2.27,0,0,1-.46.85c-.26.24-.54.16-.89.16a1.5,1.5,0,0,1-.52-.1c-.13,0-.32-.11-.42-.13s-.31,0-.47-.06-.17-.13-.39-.07-.44.32-.68.37-.7-.08-1,0C31.88,41.14,31.87,41.18,32,41.35Z"/></g><ellipse class="cls-7" cx="48.89" cy="48.89" rx="49.09" ry="48.68" transform="translate(-20.25 48.89) rotate(-45)"/><ellipse class="cls-8" cx="48.89" cy="48.89" rx="33.47" ry="33.18" transform="translate(-20.25 48.89) rotate(-45)"/></g></g></g></svg>