<svg xmlns="http://www.w3.org/2000/svg" xmlns:xlink="http://www.w3.org/1999/xlink" viewBox="0 0 332.75 196.48"><defs><style>.cls-1{isolation:isolate;}.cls-2{fill:url(#linear-gradient);}.cls-3{fill:url(#linear-gradient-2);}.cls-4{fill:url(#linear-gradient-3);}.cls-5,.cls-6{fill:#9b8bd6;mix-blend-mode:multiply;}.cls-5{opacity:0.5;}.cls-6{opacity:0.3;}</style><linearGradient id="linear-gradient" x1="157.05" y1="-68.11" x2="233.06" y2="242.78" gradientUnits="userSpaceOnUse"><stop offset="0" stop-color="#6b9ee3"/><stop offset="1" stop-color="#867ea8"/></linearGradient><linearGradient id="linear-gradient-2" x1="226.67" y1="204.15" x2="226.67" y2="-173.5" gradientUnits="userSpaceOnUse"><stop offset="0" stop-color="#628ccc"/><stop offset="1" stop-color="#6253a1"/></linearGradient><linearGradient id="linear-gradient-3" x1="274.81" y1="5.5" x2="127.12" y2="168.97" gradientUnits="userSpaceOnUse"><stop offset="0" stop-color="#9abff1"/><stop offset="1" stop-color="#4e4fbd"/></linearGradient></defs><title>mountain image</title><g class="cls-1"><g id="Layer_2" data-name="Layer 2"><g id="Ñëîé_1" data-name="Ñëîé 1"><polygon class="cls-2" points="129.1 98.87 145.14 81.43 147.94 81.33 165.19 79.97 192.71 41.08 201.4 45.67 273.13 125.37 158.91 150.79 129.1 98.87"/><path class="cls-3" d="M142.51,115.23,164.91,99l9,1.6,10-1.24L206.2,85.69l58.5-51.47,68.05,142.33s-215.42,3.5-212.12,2.67S142.51,115.23,142.51,115.23Z"/><polygon class="cls-4" points="294.59 194.47 56.84 191.6 56.88 173.54 0 143.16 57.19 39.99 88.56 0.89 89.06 0.26 89.27 0 96.04 5.29 113.02 47.33 113.18 47.27 120.37 44.88 120.9 44.7 123.53 50.2 126.46 50.2 155.66 109.44 169.8 127.11 172.43 127.11 224.67 101.07 292.87 177.5 294.59 194.47"/><path class="cls-5" d="M122.72,115l-1.5-9.91,5.12,4L116.11,60.26l2.59-2,4.43,4.21-2.76-17.6,0-.21-7.16,2.61-.14,0L86.4,86.4,82.64,51.46,85,49.32l1.71-3.62,2.32,5.77L86.73,30.18l2.32-3.7,3.2,2.66L89.06.26l-.5.63L57.19,40,32.54,83.66,57,142.42l-.07,31.12,53.78-26.43,3.41,2.21-5.8-61,2.39-.66ZM76.57,100.81,61,123.58,62.32,54.5l2.79-1.08,3.14,11,9-8.09C77.05,68,76.68,89.9,76.57,100.81Z"/><polygon class="cls-6" points="140.93 186.28 140.93 183.76 132.41 183.76 121.91 178.74 124.91 174.6 124.97 169.5 130.22 121.02 138.63 152.89 143.98 150.65 152.52 139.94 155.02 137.13 150.27 125.97 157.63 134.2 160.29 131.22 172.42 127.08 180.62 122.94 223.83 101.13 226.08 134.17 222.74 134.17 223.55 141.93 218.99 149.77 228.26 173.71 216.4 183.4 277.55 191.45 288.32 196.33 124.91 195.44 140.93 186.28"/><polygon class="cls-6" points="222.74 134.17 161.72 150.65 156.54 149.77 223.55 127.22 225.52 125.94 226.08 134.17 222.74 134.17"/><polygon class="cls-6" points="217.83 151.47 176.99 173.56 228.26 173.71 217.83 151.47"/><polygon class="cls-6" points="214.28 184.5 203.1 195.29 135.68 196.48 147.27 187.68 201.19 184.36 201.19 182.73 220.28 179.26 214.28 184.5"/><polygon class="cls-6" points="105.75 62.03 118.7 58.27 122.67 62.03 121.91 55.9 104.3 60.15 86.86 85.75 69.14 113.55 62.32 134.17 51.14 123.6 45.89 160.11 71.12 147.77 110.66 147.1 114.07 148.95 113.32 144.15 71.39 138.24 73.57 127.15 80.12 123.01 82.09 117.76 74.87 120.05 86.32 91.3 108.27 88.49 110.66 87.61 122.46 114.44 121.22 105.12 118.97 104.16 111.61 83.25 95.39 81.92 105.75 62.03"/><polygon class="cls-6" points="89.05 26.48 68.46 30.18 91.61 24.11 92.25 29.14 89.05 26.48"/><polygon class="cls-6" points="86.73 45.7 54.62 50.8 54.62 47.25 86.73 37.2 88.97 50.8 86.73 45.7"/><polygon class="cls-6" points="76.69 91.57 80.12 53.16 66.69 55.31 77.25 55.9 76.69 91.57"/><polygon class="cls-5" points="180.33 129.22 151.09 148.44 156.54 149.77 172.7 154.2 161.72 175.71 140.93 183.4 138.59 183.76 132.41 183.76 121.91 178.74 124.91 174.6 136.47 160.07 130.09 120.05 132.47 117.02 144.84 149.57 152.52 139.94 155.02 137.13 149.93 125.08 151.36 125.97 144.34 113.7 158.41 133.33 160.29 131.22 172.42 127.08 180.62 122.94 182.85 123.01 180.33 129.22"/></g></g></g></svg>