<svg xmlns="http://www.w3.org/2000/svg" viewBox="0 0 317.52 208.22"><defs><style>.cls-1{fill:#68b7e7;}.cls-1,.cls-2,.cls-3,.cls-5,.cls-7{fill-rule:evenodd;}.cls-2{fill:#406fbb;}.cls-3,.cls-4{fill:#365cbb;}.cls-5,.cls-6{fill:#90ffff;}.cls-7{fill:#b7ffff;}</style></defs><title>stars image</title><g id="Layer_2" data-name="Layer 2"><g id="Ñëîé_1" data-name="Ñëîé 1"><path class="cls-1" d="M162.8,38.2a.47.47,0,0,1-.94,0,.47.47,0,0,1,.94,0Z"/><path class="cls-1" d="M153.76,88.3a.47.47,0,0,1-.94,0,.47.47,0,1,1,.94,0Z"/><path class="cls-1" d="M220.51,113.18a.47.47,0,1,1-.94,0,.47.47,0,0,1,.94,0Z"/><path class="cls-1" d="M233.68,170.26a.47.47,0,1,1-.93,0,.47.47,0,0,1,.93,0Z"/><path class="cls-2" d="M191.18,94.11a.46.46,0,0,1-.46.47.47.47,0,1,1,0-.93A.46.46,0,0,1,191.18,94.11Z"/><path class="cls-2" d="M169.16,83.5a.46.46,0,0,1-.46.46.47.47,0,1,1,0-.93A.46.46,0,0,1,169.16,83.5Z"/><path class="cls-3" d="M141.81,62.22a.46.46,0,0,1-.46.46.47.47,0,1,1,0-.93A.46.46,0,0,1,141.81,62.22Z"/><circle class="cls-4" cx="113.19" cy="27.38" r="0.47"/><path class="cls-3" d="M168.7,11.46a.47.47,0,1,1-.47-.47A.47.47,0,0,1,168.7,11.46Z"/><path class="cls-3" d="M198.3,93.65a.47.47,0,0,1-.93,0,.47.47,0,1,1,.93,0Z"/><circle class="cls-4" cx="201.69" cy="7.57" r="0.47"/><path class="cls-5" d="M108.42,202a.47.47,0,0,1-.94,0,.47.47,0,0,1,.94,0Z"/><path class="cls-2" d="M218.84,17.76a.47.47,0,1,1-.47-.46A.47.47,0,0,1,218.84,17.76Z"/><path class="cls-2" d="M214.83,79.52a.47.47,0,1,1-.47-.47A.47.47,0,0,1,214.83,79.52Z"/><path class="cls-2" d="M95.89,57.19a.47.47,0,1,1-.47-.46A.47.47,0,0,1,95.89,57.19Z"/><path class="cls-2" d="M285.31,13.59a.47.47,0,0,1-.94,0,.47.47,0,0,1,.94,0Z"/><path class="cls-2" d="M120.48,81.56a.47.47,0,1,1-.46-.47A.47.47,0,0,1,120.48,81.56Z"/><path class="cls-2" d="M163.33,207.76a.47.47,0,0,1-.93,0,.47.47,0,1,1,.93,0Z"/><path class="cls-2" d="M317.52,7.59a.47.47,0,0,1-.93,0,.47.47,0,1,1,.93,0Z"/><path class="cls-2" d="M126.58,24.11a.47.47,0,1,1-.46-.47A.47.47,0,0,1,126.58,24.11Z"/><path class="cls-2" d="M217.08,142.84a.47.47,0,1,1-.46-.47A.47.47,0,0,1,217.08,142.84Z"/><path class="cls-2" d="M68.87,78.62a.47.47,0,0,1-.47.46.47.47,0,0,1,0-.93A.47.47,0,0,1,68.87,78.62Z"/><path class="cls-2" d="M79.43,12.39a.47.47,0,0,1-.93,0,.47.47,0,1,1,.93,0Z"/><path class="cls-2" d="M178.66,122.27a.47.47,0,1,1-.47-.46A.47.47,0,0,1,178.66,122.27Z"/><path class="cls-2" d="M142.28,45.23a.47.47,0,1,1-.47-.46A.47.47,0,0,1,142.28,45.23Z"/><path class="cls-2" d="M251.16,156.33a.46.46,0,0,1-.47.46.45.45,0,0,1-.46-.46.46.46,0,0,1,.46-.47A.47.47,0,0,1,251.16,156.33Z"/><path class="cls-1" d="M224.25,47.1a.47.47,0,1,1-.94,0,.47.47,0,0,1,.94,0Z"/><path class="cls-2" d="M247.08,51a.47.47,0,1,1-.93,0,.47.47,0,0,1,.93,0Z"/><path class="cls-2" d="M193.46,171.7a.47.47,0,1,1-.46-.47A.47.47,0,0,1,193.46,171.7Z"/><path class="cls-5" d="M106.23,64.9a.46.46,0,0,1-.46.47.47.47,0,0,1-.47-.47.46.46,0,0,1,.47-.46A.45.45,0,0,1,106.23,64.9Z"/><circle class="cls-6" cx="149.25" cy="70.52" r="0.47"/><path class="cls-5" d="M145.05,11.92a.47.47,0,1,1-.47-.46A.47.47,0,0,1,145.05,11.92Z"/><path class="cls-5" d="M66.47,47.09a.47.47,0,0,1-.47.46.47.47,0,0,1,0-.93A.47.47,0,0,1,66.47,47.09Z"/><path class="cls-7" d="M177.64,138.16a.47.47,0,1,1-.93,0,.47.47,0,0,1,.93,0Z"/><path class="cls-5" d="M158.37,28.84a.47.47,0,1,1-.47-.47A.47.47,0,0,1,158.37,28.84Z"/><path class="cls-5" d="M246.61,92.54a.46.46,0,0,1-.46.47.47.47,0,1,1,0-.94A.46.46,0,0,1,246.61,92.54Z"/><path class="cls-5" d="M152.1,139.69a.47.47,0,0,1-.47.47.47.47,0,0,1,0-.94A.47.47,0,0,1,152.1,139.69Z"/><path class="cls-5" d="M87.82,143.75a.47.47,0,1,1-.47-.46A.47.47,0,0,1,87.82,143.75Z"/><path class="cls-5" d="M246.15,4.87a.47.47,0,1,1-.47-.47A.47.47,0,0,1,246.15,4.87Z"/><path class="cls-5" d="M214.57,38.18a.47.47,0,0,1-.47.47.47.47,0,0,1,0-.93A.47.47,0,0,1,214.57,38.18Z"/><path class="cls-5" d="M198.76,64.9a.46.46,0,0,1-.46.47.47.47,0,0,1-.47-.47.46.46,0,0,1,.47-.46A.45.45,0,0,1,198.76,64.9Z"/><path class="cls-5" d="M150.64,65.05a.46.46,0,0,1-.46.47.47.47,0,0,1-.47-.47.46.46,0,0,1,.47-.46A.45.45,0,0,1,150.64,65.05Z"/><path class="cls-5" d="M165.62,146.29a.47.47,0,1,1-.46-.47A.47.47,0,0,1,165.62,146.29Z"/><path class="cls-1" d="M152.57,106.07a.47.47,0,1,1-.47-.46A.47.47,0,0,1,152.57,106.07Z"/><path class="cls-2" d="M123.25,87a.47.47,0,1,1-.47-.47A.47.47,0,0,1,123.25,87Z"/><path class="cls-2" d="M101.23,76.39a.47.47,0,0,1-.93,0,.47.47,0,1,1,.93,0Z"/><path class="cls-3" d="M73.88,55.11a.47.47,0,1,1-.47-.47A.47.47,0,0,1,73.88,55.11Z"/><path class="cls-3" d="M45.72,20.28a.47.47,0,1,1-.47-.47A.47.47,0,0,1,45.72,20.28Z"/><path class="cls-3" d="M100.76,4.35a.47.47,0,1,1-.46-.47A.47.47,0,0,1,100.76,4.35Z"/><path class="cls-3" d="M53.56,125.32a.46.46,0,0,1-.47.46.45.45,0,0,1-.46-.46.46.46,0,0,1,.46-.47A.47.47,0,0,1,53.56,125.32Z"/><path class="cls-3" d="M130.36,86.54a.47.47,0,1,1-.93,0,.47.47,0,0,1,.93,0Z"/><path class="cls-3" d="M134.22.47a.47.47,0,0,1-.47.46.46.46,0,0,1-.46-.46.46.46,0,0,1,.46-.47A.47.47,0,0,1,134.22.47Z"/><path class="cls-2" d="M28,50.09a.47.47,0,1,1-.46-.47A.47.47,0,0,1,28,50.09Z"/><path class="cls-2" d="M52.55,74.45a.47.47,0,1,1-.47-.46A.47.47,0,0,1,52.55,74.45Z"/><path class="cls-2" d="M58.65,17a.47.47,0,1,1-.47-.46A.47.47,0,0,1,58.65,17Z"/><path class="cls-2" d="M56.08,139.65a.47.47,0,0,1-.93,0,.47.47,0,1,1,.93,0Z"/><path class="cls-2" d="M.93,71.51A.47.47,0,0,1,.47,72a.47.47,0,1,1,0-.94A.47.47,0,0,1,.93,71.51Z"/><path class="cls-2" d="M11.5,5.28a.47.47,0,0,1-.94,0,.47.47,0,0,1,.94,0Z"/><path class="cls-2" d="M74.34,38.13a.46.46,0,0,1-.46.46.47.47,0,1,1,0-.93A.46.46,0,0,1,74.34,38.13Z"/><path class="cls-5" d="M38.3,57.79a.47.47,0,1,1-.47-.46A.47.47,0,0,1,38.3,57.79Z"/><path class="cls-5" d="M77.11,4.82a.47.47,0,1,1-.46-.47A.47.47,0,0,1,77.11,4.82Z"/><path class="cls-7" d="M109.7,131.05a.46.46,0,0,1-.46.47.47.47,0,1,1,0-.93A.46.46,0,0,1,109.7,131.05Z"/><path class="cls-5" d="M84.16,132.58a.47.47,0,1,1-.47-.46A.47.47,0,0,1,84.16,132.58Z"/><path class="cls-5" d="M19.88,136.65a.47.47,0,1,1-.47-.47A.47.47,0,0,1,19.88,136.65Z"/><path class="cls-5" d="M146.63,31.08a.47.47,0,1,1-.46-.47A.47.47,0,0,1,146.63,31.08Z"/><path class="cls-5" d="M130.83,57.79a.47.47,0,1,1-.47-.46A.47.47,0,0,1,130.83,57.79Z"/><path class="cls-5" d="M84.21,61.23a.47.47,0,1,1-.46-.47A.47.47,0,0,1,84.21,61.23Z"/><path class="cls-5" d="M97.69,139.18a.47.47,0,1,1-.47-.46A.47.47,0,0,1,97.69,139.18Z"/><path class="cls-5" d="M214.47,137a.47.47,0,1,1-.47-.46A.47.47,0,0,1,214.47,137Z"/><path class="cls-2" d="M279.55,78.15a.47.47,0,1,1-.47-.46A.47.47,0,0,1,279.55,78.15Z"/><path class="cls-2" d="M241.13,57.59a.47.47,0,1,1-.47-.46A.47.47,0,0,1,241.13,57.59Z"/><path class="cls-2" d="M37.23,10.37a.47.47,0,0,1-.47.47.46.46,0,0,1-.46-.47.45.45,0,0,1,.46-.46A.46.46,0,0,1,37.23,10.37Z"/><path class="cls-2" d="M208.3,91.2a.47.47,0,1,1-.47-.47A.47.47,0,0,1,208.3,91.2Z"/><path class="cls-2" d="M255.93,107a.47.47,0,1,1-.46-.46A.47.47,0,0,1,255.93,107Z"/><path class="cls-5" d="M276.94,72.27a.47.47,0,1,1-.47-.47A.47.47,0,0,1,276.94,72.27Z"/></g></g></svg>